<svg xmlns="http://www.w3.org/2000/svg" version="1.1" xmlns:xlink="http://www.w3.org/1999/xlink" xmlns:svgjs="http://svgjs.dev/svgjs" width="1440" height="560" preserveAspectRatio="none" viewBox="0 0 1440 560">
    <g mask="url(&quot;#SvgjsMask1006&quot;)" fill="none">
        <rect width="1440" height="560" x="0" y="0" fill="url(&quot;#SvgjsLinearGradient1007&quot;)"></rect>
        <path d="M1488 560L0 560 L0 438.41Q39.31 405.72, 72 445.03Q143.33 396.36, 192 467.68Q210.88 414.56, 264 433.43Q318.45 367.88, 384 422.33Q433.25 399.57, 456 448.82Q485.82 406.64, 528 436.47Q602.93 391.4, 648 466.34Q677.74 424.07, 720 453.81Q770.75 384.56, 840 435.3Q894.82 370.12, 960 424.94Q1012.74 405.68, 1032 458.42Q1080.79 387.21, 1152 436Q1217.91 381.91, 1272 447.83Q1317.04 420.87, 1344 465.9Q1363.98 413.88, 1416 433.85Q1459.16 405.01, 1488 448.18z" fill="rgba(73, 74, 134, 1)"></path>
        <path d="M1488 560L0 560 L0 456.56Q73.49 410.05, 120 483.54Q164.94 456.48, 192 501.42Q210.77 448.19, 264 466.96Q307.33 438.29, 336 481.62Q404.06 429.69, 456 497.75Q501.84 423.59, 576 469.43Q605.75 427.19, 648 456.94Q727.62 416.56, 768 496.17Q815.48 423.65, 888 471.14Q916.38 427.51, 960 455.89Q1018.89 442.78, 1032 501.67Q1081.37 431.03, 1152 480.4Q1181.28 437.68, 1224 466.96Q1254.59 425.55, 1296 456.14Q1377.31 417.45, 1416 498.76Q1440.92 451.69, 1488 476.61z" fill="rgba(36, 43, 115, 1)"></path>
        <path d="M1560 560L0 560 L0 514.22Q61.74 455.96, 120 517.7Q143.51 469.22, 192 492.73Q273.41 454.14, 312 535.55Q360.8 464.35, 432 513.15Q483.07 444.22, 552 495.29Q609.3 480.59, 624 537.89Q646.48 488.37, 696 510.85Q745.69 440.54, 816 490.23Q867.42 469.66, 888 521.08Q932.65 493.73, 960 538.38Q977.59 483.97, 1032 501.56Q1079.33 476.89, 1104 524.22Q1158.85 459.07, 1224 513.92Q1272.26 490.18, 1296 538.44Q1311.93 482.38, 1368 498.31Q1409.32 467.63, 1440 508.94Q1509.24 458.18, 1560 527.42z" fill="#356cb1"></path>
        <path d="M1536 560L0 560 L0 555.24Q24.21 507.45, 72 531.67Q151.49 491.16, 192 570.65Q217.29 523.94, 264 549.23Q294.71 507.94, 336 538.65Q385.6 516.25, 408 565.85Q437.26 523.12, 480 552.38Q505.64 506.02, 552 531.67Q628.13 487.79, 672 563.92Q699.79 519.71, 744 547.51Q771.44 502.95, 816 530.39Q897.76 492.15, 936 573.92Q982.35 500.26, 1056 546.61Q1108.57 479.17, 1176 531.74Q1251.01 486.75, 1296 561.77Q1348.27 494.04, 1416 546.31Q1470.75 481.06, 1536 535.81z" fill="white"></path>
    </g>
    <defs>
        <mask id="SvgjsMask1006">
            <rect width="1440" height="560" fill="#ffffff"></rect>
        </mask>
        <linearGradient x1="84.72%" y1="-39.29%" x2="15.28%" y2="139.29%" gradientUnits="userSpaceOnUse" id="SvgjsLinearGradient1007">
            <stop stop-color="#0e2a47" offset="0"></stop>
            <stop stop-color="rgba(76, 112, 159, 1)" offset="1"></stop>
        </linearGradient>
    </defs>
</svg>